# xmcd
#
# Track frame offsets: 
#        160
#        5435
#        31417
#        47996
#        77632
#        98219
#        126828
#        161790
#        186538
#
# Disc length: 2765 seconds
#
# Revision: 1
# Processed by: cddbd v1.5.2PL0 Copyright (c) Steve Scherf et al.
# Submitted via: ExactAudioCopy v0.95b4
#
DISCID=750acb09
DTITLE=Archontes - The World Where Shadows Come To Life
DYEAR=1998
DGENRE=Melodic Power Metal
TTITLE0=Opening Incantation
TTITLE1=The World Where Shadows Come To Life
TTITLE2=Runaway From Dark
TTITLE3=Whisper Of Time
TTITLE4=Fear Is The Conscience Of Villains
TTITLE5=Mother Russia
TTITLE6=The Rules Of Real Life
TTITLE7=Victory Or Death
TTITLE8=Living On My Own (Freddie Mercury Cover) (Bonus Track)
EXTD=YEAR: 1999
EXTT0=
EXTT1=
EXTT2=
EXTT3=
EXTT4=
EXTT5=
EXTT6=
EXTT7=
EXTT8=
PLAYORDER=
